<?xml version="1.0" encoding="utf-8"?>
<!-- Generator: Adobe Illustrator 26.3.1, SVG Export Plug-In . SVG Version: 6.00 Build 0)  -->
<svg version="1.1" id="Layer_1" xmlns:c2pa="http://c2pa.org/manifest"
	 xmlns="http://www.w3.org/2000/svg" xmlns:xlink="http://www.w3.org/1999/xlink" x="0px" y="0px" viewBox="0 0 1000 1000"
	 style="enable-background:new 0 0 1000 1000;" xml:space="preserve">
<style type="text/css">
	.st0{fill:none;stroke:#0F4CA0;stroke-width:40;stroke-linecap:round;}
	.st1{fill:none;stroke:#0F4CA0;stroke-width:44;stroke-linecap:round;stroke-linejoin:round;}
	.st2{fill:none;stroke:#0F4CA0;stroke-width:44;}
	.st3{fill:#A3AEBB;}
	.st4{fill:none;stroke:#A3AEBB;stroke-width:30;stroke-linecap:round;stroke-linejoin:round;}
</style>
<path class="st0" d="M205.9,362.6c20.1-40.3,52.9-59.9,98.5-58.8"/>
<path class="st1" d="M289.1,317.5l88.6,114.8"/>
<path class="st1" d="M470.4,264.5l-92.7,167.8c-24.7,52.5-53.7,81.1-57,116c-2.7,30.7,26.8,43.4,49.6,18.7"/>
<circle class="st2" cx="576.8" cy="495.3" r="95"/>
<rect x="558.8" y="477.3" transform="matrix(0.4209 -0.9071 0.9071 0.4209 -115.2623 810.0352)" class="st3" width="36" height="36"/>
<path class="st4" d="M505.1,348.3c18.1-39.4,39.9-78.5,64.2-105.1c20-18.7,41.8-16.8,47.3,4.1c4.4,16.8-17,27.2-34.5,17.5
	c38.6,19.8,144.9,61.9,209.1,165.9c38,68.9,14.9,165.3-56.3,224.6c-78.5,58.7-226.1,70.4-348.4,43.3
	C278.3,676.8,216.8,626.4,207.9,560c-5.9-33.3,1.3-57.3,20.6-67.9"/>
</svg>
